<?xml version="1.0" encoding="UTF-8" standalone="no"?>
<!-- Created with Inkscape (http://www.inkscape.org/) -->

<svg
   xmlns:dc="http://purl.org/dc/elements/1.1/"
   xmlns:cc="http://creativecommons.org/ns#"
   xmlns:rdf="http://www.w3.org/1999/02/22-rdf-syntax-ns#"
   xmlns:svg="http://www.w3.org/2000/svg"
   xmlns="http://www.w3.org/2000/svg"
   xmlns:sodipodi="http://sodipodi.sourceforge.net/DTD/sodipodi-0.dtd"
   xmlns:inkscape="http://www.inkscape.org/namespaces/inkscape"
   width="800"
   height="800"
   viewBox="0 0 211.66666 211.66667"
   version="1.1"
   id="svg3127"
   sodipodi:docname="langs-icon.svg"
   inkscape:version="0.92.4 (5da689c313, 2019-01-14)">
  <defs
     id="defs3121" />
  <sodipodi:namedview
     id="base"
     pagecolor="#ffffff"
     bordercolor="#666666"
     borderopacity="1.0"
     inkscape:pageopacity="0.0"
     inkscape:pageshadow="2"
     inkscape:zoom="0.49497474"
     inkscape:cx="429.16973"
     inkscape:cy="467.99668"
     inkscape:document-units="mm"
     inkscape:current-layer="layer1"
     showgrid="false"
     units="px"
     inkscape:window-width="2100"
     inkscape:window-height="1234"
     inkscape:window-x="2391"
     inkscape:window-y="-9"
     inkscape:window-maximized="1" />
  <metadata
     id="metadata3124">
    <rdf:RDF>
      <cc:Work
         rdf:about="">
        <dc:format>image/svg+xml</dc:format>
        <dc:type
           rdf:resource="http://purl.org/dc/dcmitype/StillImage" />
        <dc:title></dc:title>
      </cc:Work>
    </rdf:RDF>
  </metadata>
  <g
     inkscape:label="Layer 1"
     inkscape:groupmode="layer"
     id="layer1"
     transform="translate(0,-85.333317)">
    <rect
       style="opacity:1;fill:#4d4d4d;fill-opacity:0.94117647;stroke:none;stroke-width:0;stroke-linecap:round;stroke-linejoin:round;stroke-miterlimit:4;stroke-dasharray:none;stroke-dashoffset:0;stroke-opacity:1;paint-order:stroke markers fill"
       id="rect5885"
       width="211.66667"
       height="211.66667"
       x="-0.014821778"
       y="85.336319"
       ry="105.83334" />
    <flowRoot
       xml:space="preserve"
       id="flowRoot1407"
       style="font-style:normal;font-weight:normal;font-size:40px;line-height:1.25;font-family:sans-serif;letter-spacing:0px;word-spacing:0px;fill:#000000;fill-opacity:1;stroke:none"
       transform="matrix(0.26458333,0,0,0.26458333,0,85.333317)"><flowRegion
         id="flowRegion1409"><rect
           id="rect1411"
           width="400"
           height="211.42867"
           x="-854.28571"
           y="542.85712" /></flowRegion><flowPara
         id="flowPara1413"
         style="font-size:192px">SEO</flowPara></flowRoot>    <g
       id="g833"
       transform="matrix(0.81,0,0,0.81,21.064329,33.570202)">
      <path
         style="opacity:1;fill:#cccccc;fill-opacity:1;stroke:#18ffff;stroke-width:0;stroke-linecap:butt;stroke-linejoin:round;stroke-miterlimit:4;stroke-dasharray:none;stroke-dashoffset:0;stroke-opacity:1;paint-order:stroke markers fill"
         d="m 132.49698,109.30945 c -3.09501,-0.0459 -6.51442,1.15065 -10.16682,4.26279 -15.0725,12.84294 -36.928119,22.27333 -58.684793,5.86579 v 63.87723 c 28.213748,11.58755 45.132233,7.43493 60.069723,-4.98109 10.88903,-9.05094 20.09978,0.74746 22.91746,4.98109 v -63.87723 c -2.82227,-4.73116 -7.79817,-10.03455 -14.13557,-10.12858 z m -79.846808,8.37726 c -3.250943,0 -5.86786,1.05819 -5.86786,2.37247 v 130.2954 c 0,1.31428 2.616917,2.37247 5.86786,2.37247 3.250944,0 5.868374,-1.05819 5.868374,-2.37247 v -130.2954 c 0,-1.31428 -2.61743,-2.37247 -5.868374,-2.37247 z"
         id="path829"
         inkscape:connector-curvature="0" />
      <path
         inkscape:connector-curvature="0"
         id="rect823"
         d="m 155.18517,134.40512 c -3.09501,-0.0459 -6.51442,1.15066 -10.16682,4.26279 -15.0725,12.84295 -36.92811,22.27333 -58.684787,5.86579 v 63.87724 c 28.213757,11.58755 45.132227,7.43493 60.069717,-4.98109 10.88903,-9.05094 20.09978,0.74746 22.91746,4.98109 V 144.5337 c -2.82227,-4.73116 -7.79817,-10.03455 -14.13557,-10.12858 z m -79.846802,8.37727 c -3.250943,0 -5.86786,1.05818 -5.86786,2.37246 v 130.29541 c 0,1.31427 2.616917,2.37246 5.86786,2.37246 3.250944,0 5.868374,-1.05819 5.868374,-2.37246 V 145.15485 c 0,-1.31428 -2.61743,-2.37246 -5.868374,-2.37246 z"
         style="opacity:1;fill:#18ffff;fill-opacity:1;stroke:#18ffff;stroke-width:0;stroke-linecap:butt;stroke-linejoin:round;stroke-miterlimit:4;stroke-dasharray:none;stroke-dashoffset:0;stroke-opacity:1;paint-order:stroke markers fill" />
    </g>
  </g>
</svg>
