<?xml version="1.0" encoding="UTF-8" standalone="no"?>
<!-- Created with Inkscape (http://www.inkscape.org/) -->

<svg
   xmlns:dc="http://purl.org/dc/elements/1.1/"
   xmlns:cc="http://creativecommons.org/ns#"
   xmlns:rdf="http://www.w3.org/1999/02/22-rdf-syntax-ns#"
   xmlns:svg="http://www.w3.org/2000/svg"
   xmlns="http://www.w3.org/2000/svg"
   xmlns:sodipodi="http://sodipodi.sourceforge.net/DTD/sodipodi-0.dtd"
   xmlns:inkscape="http://www.inkscape.org/namespaces/inkscape"
   width="800"
   height="800"
   viewBox="0 0 211.66666 211.66667"
   version="1.1"
   id="svg3127"
   sodipodi:docname="security-icon.svg"
   inkscape:version="0.92.4 (5da689c313, 2019-01-14)">
  <defs
     id="defs3121" />
  <sodipodi:namedview
     id="base"
     pagecolor="#ffffff"
     bordercolor="#666666"
     borderopacity="1.0"
     inkscape:pageopacity="0.0"
     inkscape:pageshadow="2"
     inkscape:zoom="0.98994949"
     inkscape:cx="-275.57329"
     inkscape:cy="225.56007"
     inkscape:document-units="mm"
     inkscape:current-layer="layer1"
     showgrid="false"
     units="px"
     inkscape:window-width="2100"
     inkscape:window-height="1234"
     inkscape:window-x="2391"
     inkscape:window-y="-9"
     inkscape:window-maximized="1" />
  <metadata
     id="metadata3124">
    <rdf:RDF>
      <cc:Work
         rdf:about="">
        <dc:format>image/svg+xml</dc:format>
        <dc:type
           rdf:resource="http://purl.org/dc/dcmitype/StillImage" />
        <dc:title />
      </cc:Work>
    </rdf:RDF>
  </metadata>
  <g
     inkscape:label="Layer 1"
     inkscape:groupmode="layer"
     id="layer1"
     transform="translate(0,-85.333317)">
    <rect
       style="opacity:1;fill:#333333;fill-opacity:0.94117647;stroke:none;stroke-width:0;stroke-linecap:round;stroke-linejoin:round;stroke-miterlimit:4;stroke-dasharray:none;stroke-dashoffset:0;stroke-opacity:1;paint-order:stroke markers fill"
       id="rect5885"
       width="211.66667"
       height="211.66667"
       x="-0.014821778"
       y="85.336319"
       ry="105.83334" />
    <rect
       style="opacity:1;fill:#cccccc;fill-opacity:1;stroke:#cccccc;stroke-width:3.54102254;stroke-linecap:butt;stroke-linejoin:round;stroke-miterlimit:4;stroke-dasharray:none;stroke-dashoffset:0;stroke-opacity:1;paint-order:stroke markers fill"
       id="rect2589"
       width="60.974869"
       height="73.625671"
       x="79.715248"
       y="152.41023"
       ry="0.3577728" />
    <g
       transform="matrix(0.14061043,0,0,0.14061044,36.859818,126.14581)"
       id="g15385"
       style="fill:#18ffff;fill-opacity:1">
      <path
         d="m 541.2,530.4 c 0,-19.3 -15.4,-39.5 -42.4,-39.5 -24.1,0 -39.5,15.4 -39.5,39.5 0,6.7 0,15.4 4.8,22.2 1.9,4.8 11.6,6.7 11.6,13.5 0,4.8 -20.2,39.5 -20.2,43.4 0,6.7 1.9,4.8 1.9,6.7 h 86.7 l 1.9,-6.7 c 0,-4.8 -20.2,-39.5 -20.2,-43.4 0,-9.7 15.4,-21.3 15.4,-35.7 z"
         id="path15379"
         inkscape:connector-curvature="0"
         style="fill:#18ffff;fill-opacity:1" />
      <path
         d="M 881.4,110.2 H 830.3 C 750.3,110.2 604.8,72.6 547,34.1 532.5,25.4 516.2,10 498.8,10 c -10.6,0 -80,41.4 -95.4,48.2 -27,10.6 -53,19.3 -77.1,26 -15.4,3.9 -30.8,8.7 -46.3,10.6 -35.7,6.7 -73.2,11.6 -110.8,15.4 h -53 c -13.5,0 -24.1,19.3 -24.1,26 l 2,111.8 c 9.6,82.9 15.4,170.6 35.7,253.4 22.2,89.6 51.1,186 106,272.7 17.3,30.8 44.3,58.8 66.5,89.6 20.2,30.9 157,126.3 196.5,126.3 15.4,0 64.6,-26 70.3,-27.9 C 777.3,844.5 839,629.6 874.6,470.6 890,398.3 898.7,315.5 905.4,245.1 l 1.9,-76.1 c 1.1,-14.5 3,-52 -25.9,-58.8 z M 684.8,663.3 c -1.9,8.7 -20.2,39.5 -37.6,39.5 H 350.4 c -18.3,-1.9 -36.6,-22.2 -35.7,-36.6 V 458.1 c 4.8,-26 22.2,-36.6 46.3,-41.4 v -94.4 c 17.3,-84.8 77.1,-115.6 136.8,-115.6 48.2,0 99.3,17.3 128.2,82.9 4.8,8.7 10.6,27.9 10.6,34.7 v 91.5 c 15.4,1.9 46.3,24.1 46.3,41.4 v 206.2 h 1.9 z"
         id="path15381"
         inkscape:connector-curvature="0"
         style="fill:#18ffff;fill-opacity:1" />
      <path
         d="m 498.8,274 c -30.8,0 -59.7,15.4 -68.4,61.7 v 80.9 H 570.1 V 335.7 C 569.2,301 532.5,274 498.8,274 Z"
         id="path15383"
         inkscape:connector-curvature="0"
         style="fill:#18ffff;fill-opacity:1" />
    </g>
  </g>
</svg>
